# xmcd
#
# Track frame offsets:
# 150
# 9227
# 22102
# 33545
# 42960
# 55965
# 68972
# 83782
# 97740
# 105935
# 119545
# 130945
# 144537
#
# Disc length: 2085 seconds
#
#
# Revision: 0
# Processed by: cddbd v1.5.1PL0 Copyright (c) Steve Scherf et al.
# Submitted via: FreeRIP 2.60 
#
DISCID=a708230d
DTITLE=Lois Skiera-Zucek - Songs About Native Americans
DYEAR=1993
DGENRE=Country
TTITLE0=America Honors You
TTITLE1=Wake, Little Children
TTITLE2=The circle Of Life
TTITLE3=A Work Of Art
TTITLE4=Indians Live Today
TTITLE5=Cradleboard Lullaby
TTITLE6=Sun and Rain
TTITLE7=An Indian Village
TTITLE8=Food For My Family
TTITLE9=A Place Called Home
TTITLE10=The Tepee
TTITLE11=Many, Many tribes In America
TTITLE12=Beautiful Music
EXTD=
EXTT0=
EXTT1=
EXTT2=
EXTT3=
EXTT4=
EXTT5=
EXTT6=
EXTT7=
EXTT8=
EXTT9=
EXTT10=
EXTT11=
EXTT12=
PLAYORDER=
